# xmcd CD database file
#
# Track frame offsets:
#	150
#	12170
#	27766
#	42253
#	59478
#	83039
#	96141
#	108907
#	128157
#	141406
#	158982
#	176015
#	193543
#	208577
#
# Disc length: 2992 seconds
#
# Revision: 0
# Processed by: cddbd v1.5.2PL0 Copyright (c) Steve Scherf et al.
# Submitted via: CDex 1.51
#
DISCID=ba0bae0e
DTITLE=Richard Clayderman - Cele mai frumoase 14 melodii
DYEAR=1900
DGENRE=New Age
TTITLE0=01 - Ballade pour Adeline
TTITLE1=02 - Lady ly
TTITLE2=03 - A come amour
TTITLE3=04 - Concerto pour un jeune fille
TTITLE4=05 - Lyphard melodie
TTITLE5=06 - maiden Dream
TTITLE6=07 - Starlight serenade
TTITLE7=08 - The Elephant Man Theme
TTITLE8=09 - Triste coeur
TTITLE9=10 - Ein Mench Ohne Freund
TTITLE10=11 - Concerto
TTITLE11=12 - Memory
TTITLE12=13 - The way we were
TTITLE13=14 - Dolannes Melodie
EXTD=
EXTT0=
EXTT1=
EXTT2=
EXTT3=
EXTT4=
EXTT5=
EXTT6=
EXTT7=
EXTT8=
EXTT9=
EXTT10=
EXTT11=
EXTT12=
EXTT13=
PLAYORDER=
